<?xml version="1.0" encoding="UTF-8"?>
<svg width="383px" height="182px" viewBox="0 0 383 182" version="1.1" xmlns="http://www.w3.org/2000/svg" xmlns:xlink="http://www.w3.org/1999/xlink">
    <!-- Generator: Sketch 60 (88103) - https://sketch.com -->
    <title>Group 4</title>
    <desc>Created with Sketch.</desc>
    <g id="Page-1" stroke="none" stroke-width="1" fill="none" fill-rule="evenodd">
        <g id="A4" transform="translate(-62.000000, -162.000000)">
            <g id="Group-4" transform="translate(62.000000, 144.000000)">
                <g id="Group-3" transform="translate(0.000000, 34.000000)">
                    <g id="Group" transform="translate(0.366733, 0.000000)">
                        <path d="M147.473274,60.4960693 C132.353966,60.595013 117.543333,57.0742462 103.041373,49.9337688 C88.5394138,42.7932915 76.4845405,33.0860153 66.8767533,20.8119403 C61.1672065,26.3215311 59.2984114,33.8465159 61.270368,43.3868946 C63.2423245,52.9272734 68.5865458,62.2164935 77.3030317,71.254555 L111.762884,92.1671642 L162.873659,76.8403697 L153.215648,60.4960693 L147.473274,60.4960693 Z" id="Path-3" fill="#E0D00C"></path>
                        <path d="M14.0920705,6.50643531e-05 C27.5984802,46.5911499 70.5431493,80.6450159 121.43188,80.6450159 C155.700329,80.6450159 186.366408,65.2027127 206.866947,40.8892451 C210.815948,46.2303273 216.790944,49.9805795 223.655123,51.0038393 C223.683728,52.03409 223.697835,53.0684312 223.697835,54.1060713 C223.697835,115.903382 173.661966,166 111.939593,166 C50.2172208,166 0.1813516,115.903382 0.1813516,54.1060713 C0.1813516,34.4807436 5.22768725,16.0354818 14.0920705,6.50643531e-05 Z" id="Combined-Shape" fill="#F8E71C"></path>
                        <ellipse id="Oval" fill="#F8E71C" cx="186.115418" cy="50.0477612" rx="38.5714286" ry="38.6507463"></ellipse>
                    </g>
                    <g id="Group-2" transform="translate(211.366733, 25.000000)">
                        <path d="M3.69470211,0 C7.69883632,1.41125078 12.1957431,2.60425715 17.1854226,3.57901912 C22.175102,4.55378109 27.3426586,4.8558169 32.6880925,4.48512655 L19.6232591,10.2333539 L7.62859838,11.643575 L12.8529598,23.607893 C12.6447006,23.7152932 12.4790893,23.8956357 12.3887636,24.1157887 C7.53259644,21.8359677 4.1974266,18.5302649 2.38393619,14.1992327 C1.43225507,11.9263992 3.70191392,8.73001986 3.69470211,6.14643963 C3.68982081,4.3977491 3.68982081,2.34893589 3.69470211,0 Z" id="Combined-Shape" fill="#FF6F2E"></path>
                        <path d="M13.7922536,25.9909919 C18.2116725,23.3440608 21.8057713,20.1224493 24.5745501,16.3261577 C27.3433289,12.529866 29.5956082,7.93061887 31.3313879,2.52841641 C25.0160743,6.21669572 20.2903586,8.6562677 17.1542409,9.84713234 C14.0181233,11.037997 8.85113187,12.4293322 1.65326673,14.021138 C1.94904976,15.4640069 2.38410347,16.6461085 2.95842787,17.5674429 C4.03439173,19.29351 5.3714511,20.4883045 6.26900819,21.4047501 C7.68487356,22.8504114 10.192622,24.3791586 13.7922536,25.9909919 Z" id="Path" fill="#F6560D" transform="translate(16.492327, 14.259704) rotate(7.000000) translate(-16.492327, -14.259704) "></path>
                    </g>
                    <circle id="Oval" fill="#000000" cx="199.866733" cy="35.5" r="7.5"></circle>
                    <ellipse id="Oval" fill="#FFFFFF" cx="201.866733" cy="33" rx="2.5" ry="3"></ellipse>
                </g>
                <text id="quack2" font-family="Dosis-Medium, Dosis" font-size="30" font-weight="400">
                    <tspan x="251" y="31" fill="#000000">q</tspan>
                    <tspan x="265.82" y="31" font-size="40" fill="#000000">u</tspan>
                    <tspan x="286.02" y="31" font-size="50" fill="#000000">a</tspan>
                    <tspan x="308.42" y="31" font-size="60" fill="#000000">c</tspan>
                    <tspan x="333.44" y="31" font-size="70" fill="#000000">k</tspan>
                    <tspan x="366.13" y="31" font-family="Dosis-SemiBold, Dosis" font-size="36" font-weight="500" fill="#FF6F2E">2</tspan>
                </text>
            </g>
        </g>
    </g>
</svg>