<?xml version="1.0" encoding="UTF-8"?>
<svg width="122px" height="65px" viewBox="0 0 122 65" version="1.1" xmlns="http://www.w3.org/2000/svg" xmlns:xlink="http://www.w3.org/1999/xlink">
    <!-- Generator: Sketch 60 (88103) - https://sketch.com -->
    <title>Group 15</title>
    <desc>Created with Sketch.</desc>
    <g id="Page-1" stroke="none" stroke-width="1" fill="none" fill-rule="evenodd">
        <g id="A4" transform="translate(-417.000000, -660.000000)">
            <g id="Group-15" transform="translate(417.000000, 660.000000)">
                <g id="Group-14">
                    <g id="Group-9">
                        <rect id="Combined-Shape" fill="#4A90E2" x="0" y="0" width="122" height="40.9072165" rx="20.4536082"></rect>
                        <text id="0" font-family="Dosis-Medium, Dosis" font-size="18" font-weight="400" fill="#FFFFFF">
                            <tspan x="67" y="37">0</tspan>
                        </text>
                    </g>
                    <g id="Group-12-Copy" transform="translate(9.000000, 3.000000)">
                        <circle id="Oval" fill="#F8E71C" cx="14.5" cy="17.5" r="14.5"></circle>
                        <g id="Group-10" transform="translate(6.000000, 12.000000)">
                            <path d="M3.49235832,-8.43769499e-15 C5.34676876,-8.43769499e-15 6.86434002,1.32445102 6.98466902,2.99951351 L4.76249685e-05,2.99951351 C0.120376626,1.32445102 1.63794788,-8.43769499e-15 3.49235832,-8.43769499e-15 Z" id="Combined-Shape" fill="#000000"></path>
                            <path d="M3.48955316,0.857142857 C4.82814701,0.857142857 5.92740536,1.79820954 6.04568164,2.99923889 L0.933424685,2.99923889 C1.05170096,1.79820954 2.15095932,0.857142857 3.48955316,0.857142857 Z" id="Combined-Shape-Copy" fill="#F8E71C"></path>
                        </g>
                        <g id="Group-10" transform="translate(39.000000, 0.000000)"></g>
                        <g id="Group-10-Copy" transform="translate(16.000000, 12.000000)">
                            <path d="M3.49235832,-8.43769499e-15 C5.34676876,-8.43769499e-15 6.86434002,1.32445102 6.98466902,2.99951351 L4.76249685e-05,2.99951351 C0.120376626,1.32445102 1.63794788,-8.43769499e-15 3.49235832,-8.43769499e-15 Z" id="Combined-Shape" fill="#000000"></path>
                            <path d="M3.48955316,0.857142857 C4.82814701,0.857142857 5.92740536,1.79820954 6.04568164,2.99923889 L0.933424685,2.99923889 C1.05170096,1.79820954 2.15095932,0.857142857 3.48955316,0.857142857 Z" id="Combined-Shape-Copy" fill="#F8E71C"></path>
                        </g>
                        <path d="M7,20 C8.91528211,20.7261723 10.3753514,20.8018612 11.3802078,20.2270667 C12.8874924,19.3648749 12.9600023,17.5584354 13.6533341,18.0992021 C14.1155553,18.4597133 14.1155553,19.7599792 13.6533341,22 L7,20 Z" id="Path-4" fill="#FF6F2E"></path>
                        <path d="M15,20 C16.9910392,20.7261723 18.475153,20.8018612 19.4523416,20.2270667 C20.9181244,19.3648749 20.9886378,17.5584354 21.6628793,18.0992021 C22.1123736,18.4597133 22.1123736,19.7599792 21.6628793,22 L15,20 Z" id="Path-4-Copy" fill="#FF6F2E" transform="translate(18.500000, 20.000000) scale(-1, 1) translate(-18.500000, -20.000000) "></path>
                        <path d="M16,18 L16,21 L14,21 L14,18 L16,18 Z" id="Combined-Shape" stroke="#FF6F2E" fill="#FF6F2E" stroke-linejoin="round"></path>
                        <ellipse id="Oval" fill="#FF6F2E" cx="13.5" cy="22" rx="1.5" ry="1"></ellipse>
                        <path d="M14,20 C16.3197543,22.9997107 17.7675488,24.6107736 18.3433835,24.8331887 C18.9192183,25.0556038 19.8047571,25.0556038 21,24.8331887 L21,22.1225449 L14,20 Z" id="Path-5" fill="#F6560D" transform="translate(17.500000, 22.500000) scale(-1, 1) translate(-17.500000, -22.500000) "></path>
                        <path d="M7,20 C9.26030795,22.9997107 10.6856721,24.6107736 11.2760925,24.8331887 C11.8665129,25.0556038 12.7744821,25.0556038 14,24.8331887 L14,22.1225449 L7,20 Z" id="Path-5" fill="#F6560D"></path>
                    </g>
                    <path d="M55.0000855,6 L55,13.0832748 L108.451328,13.0831405 C111.344267,18.0841181 113,23.8903379 113,30.0832748 C113,48.8609563 97.7776815,64.0832748 79,64.0832748 C60.2223185,64.0832748 45,48.8609563 45,30.0832748 C45,20.6732335 48.8227855,12.1560515 55.0000855,6 Z" id="Combined-Shape" fill="#4A90E2"></path>
                    <circle id="Oval-Copy-5" fill="#93C5FF" cx="79.5" cy="31.5" r="26.5"></circle>
                </g>
                <text id="0" font-family="Dosis-Medium, Dosis" font-size="48" font-weight="400" fill="#FFFFFF">
                    <tspan x="66" y="49">0</tspan>
                </text>
            </g>
        </g>
    </g>
</svg>