<?xml version="1.0" encoding="UTF-8"?>
<svg width="122px" height="62px" viewBox="0 0 122 62" version="1.1" xmlns="http://www.w3.org/2000/svg" xmlns:xlink="http://www.w3.org/1999/xlink">
    <!-- Generator: Sketch 60 (88103) - https://sketch.com -->
    <title>Group 9</title>
    <desc>Created with Sketch.</desc>
    <g id="Page-1" stroke="none" stroke-width="1" fill="none" fill-rule="evenodd">
        <g id="A4" transform="translate(-417.000000, -660.000000)">
            <g id="Group-9" transform="translate(417.000000, 660.000000)">
                <path d="M101.546392,0 C112.842608,1.6313573e-14 122,9.15739233 122,20.4536082 C122,28.7951955 117.006521,35.9704933 109.845715,39.1533482 C105.569246,52.318438 91.1829175,62 74.0942408,62 C57.7742758,62 43.9190042,53.1698717 38.9795923,40.9077715 L20.4536082,40.9072165 C9.15739233,40.9072165 1.38338747e-15,31.7498242 0,20.4536082 C-1.38338747e-15,9.15739233 9.15739233,5.62779488e-15 20.4536082,0 L101.546392,0 Z" id="Combined-Shape" fill="#4A90E2"></path>
                <g id="Group-3-Copy" transform="translate(70.000000, 7.000000)">
                    <g id="Group">
                        <path d="M23.4667854,10.2483002 C21.0609153,10.2640102 18.7041631,9.70499003 16.3965289,8.57123954 C14.0888947,7.43748905 12.1706548,5.89618746 10.641809,3.94733475 C9.73327351,4.82213639 9.43590022,6.01693819 9.74968915,7.53174016 C10.0634781,9.04654212 10.9138809,10.5214656 12.3008977,11.9565107 L17.7843453,15.2769723 L25.9173823,12.843415 L24.3805446,10.2483002 L23.4667854,10.2483002 Z" id="Path-3" fill="#E0D00C"></path>
                        <path d="M2.24195397,0.643691294 C4.39220733,8.04096446 11.2255706,13.447509 19.3229308,13.447509 C24.7760535,13.447509 29.6559188,10.9954924 32.9180818,7.1348873 C33.5458287,7.98282609 34.4963141,8.57829693 35.5882928,8.74099704 L35.5960708,9.23370925 L35.5960708,9.23370925 C35.5960708,19.0457607 27.634079,27 17.8124643,27 C7.99084956,27 0.0288576973,19.0457607 0.0288576973,9.23370925 C0.0288576973,6.11797566 0.831686101,3.18957011 2.24195397,0.643691294 Z" id="Combined-Shape" fill="#F8E71C"></path>
                        <ellipse id="Oval" fill="#F8E71C" cx="29.6157429" cy="8.58933902" rx="6.13770492" ry="6.13688699"></ellipse>
                    </g>
                    <g id="Group-2" transform="translate(33.885246, 4.500000)">
                        <path d="M0.572651296,0 C1.19326226,0.226808161 1.89024931,0.418541328 2.66361244,0.575199502 C3.43697557,0.731857675 4.23790834,0.780399145 5.06641076,0.72082391 L3.04145894,1.64464616 L1.1823759,1.87128884 L1.99200721,3.79418228 C1.96034421,3.81114654 1.93505261,3.83939528 1.92091346,3.87389587 L2.05263244,3.9375 C1.22779863,3.56997834 0.666751933,3.01815152 0.369492345,2.28201953 C0.221988863,1.91674273 0.573769072,1.40303891 0.572651296,0.987820655 C0.571894731,0.706781105 0.571894731,0.377507553 0.572651296,0 Z" id="Combined-Shape" fill="#FF6F2E"></path>
                        <path d="M2.14510532,4.17372191 C2.82862592,3.75160591 3.38376018,3.23660821 3.81050811,2.6287288 C4.23725605,2.02084939 4.58335078,1.28363434 4.84879231,0.417083656 C3.87198176,1.00515853 3.1408179,1.39375458 2.65530073,1.58287182 C2.16978356,1.77198905 1.36946226,1.99190215 0.254336821,2.24261112 C0.301204742,2.47458286 0.369489937,2.66476413 0.459192406,2.81315492 C0.627244846,3.09115657 0.835419632,3.28400097 0.975244846,3.43183019 C1.1958143,3.66502569 1.58576779,3.91232293 2.14510532,4.17372191 Z" id="Path" fill="#F6560D" transform="translate(2.551565, 2.295403) rotate(7.000000) translate(-2.551565, -2.295403) "></path>
                    </g>
                    <ellipse id="Oval" fill="#000000" cx="31.9672131" cy="6.42857143" rx="1.27868852" ry="1.28571429"></ellipse>
                    <ellipse id="Oval" fill="#FFFFFF" cx="32.2868852" cy="6.10714286" rx="1" ry="1"></ellipse>
                </g>
                <rect id="Rectangle" fill="#93C5FF" x="7" y="5" width="49" height="31" rx="15.5"></rect>
                <text id="0" font-family="Dosis-Medium, Dosis" font-size="18" font-weight="400" fill="#FFFFFF">
                    <tspan x="27" y="26">0</tspan>
                </text>
            </g>
        </g>
    </g>
</svg>