<?xml version="1.0" encoding="UTF-8"?>
<svg width="122px" height="65px" viewBox="0 0 122 65" version="1.1" xmlns="http://www.w3.org/2000/svg" xmlns:xlink="http://www.w3.org/1999/xlink">
    <!-- Generator: Sketch 60 (88103) - https://sketch.com -->
    <title>Group 16</title>
    <desc>Created with Sketch.</desc>
    <g id="Page-1" stroke="none" stroke-width="1" fill="none" fill-rule="evenodd">
        <g id="A4" transform="translate(-418.000000, -758.000000)">
            <g id="Group-16" transform="translate(418.000000, 758.000000)">
                <g id="Group-15" transform="translate(61.000000, 32.500000) scale(-1, 1) translate(-61.000000, -32.500000) ">
                    <g id="Group-14">
                        <g id="Group-9">
                            <rect id="Combined-Shape" fill="#4A90E2" x="0" y="0" width="122" height="40.9072165" rx="20.4536082"></rect>
                            <text id="0" font-family="Dosis-Medium, Dosis" font-size="18" font-weight="400" fill="#FFFFFF">
                                <tspan x="67" y="37">0</tspan>
                            </text>
                        </g>
                        <path d="M55.0000855,6 L55,13.0832748 L108.451328,13.0831405 C111.344267,18.0841181 113,23.8903379 113,30.0832748 C113,48.8609563 97.7776815,64.0832748 79,64.0832748 C60.2223185,64.0832748 45,48.8609563 45,30.0832748 C45,20.6732335 48.8227855,12.1560515 55.0000855,6 Z" id="Combined-Shape" fill="#4A90E2"></path>
                        <circle id="Oval-Copy-5" fill="#FFC9CF" cx="79.5" cy="31.5" r="26.5"></circle>
                    </g>
                    <text id="0" font-family="Dosis-Medium, Dosis" font-size="48" font-weight="400" fill="#000000">
                        <tspan x="66" y="49">0</tspan>
                    </text>
                </g>
                <g id="Group-13" transform="translate(84.000000, 6.000000)">
                    <g id="Group-8">
                        <g id="Group-6">
                            <circle id="Oval" fill="#F8E71C" cx="14.5" cy="14.5" r="14.5"></circle>
                            <path d="M15.1002197,14.8438187 C15.8252493,14.2653756 15.9010741,16.1976735 17.4772689,17.1199361 C18.5280654,17.7347778 19.9461962,19.2395209 21.7316614,21.6341653 L21.7316614,21.6341653 L15.1002197,19.0163934 C15.0672445,18.8529279 15.0365189,18.694141 15.0080429,18.5400326 L13.879062,18.5400326 C13.8505861,18.694141 13.8198605,18.8529279 13.7868852,19.0163934 L7.30455142,21.9101723 C8.99061135,19.3315232 10.3590396,17.7347778 11.4098361,17.1199361 C12.9860308,16.1976735 13.0618557,14.2653756 13.7868852,14.8438187 C13.8869544,14.9236559 13.9663062,15.0465792 14.0249405,15.2125885 L14.8621645,15.2125885 C14.9207988,15.0465792 15.0001505,14.9236559 15.1002197,14.8438187 Z" id="Combined-Shape" fill="#FF6F2E"></path>
                            <ellipse id="Oval" fill="#FF6F2E" cx="14.9754098" cy="18.7786885" rx="1.18852459" ry="1.66393443"></ellipse>
                            <path d="M14.2661264,21.3208346 C13.0858586,21.4959303 12.1996104,21.4800125 11.6073819,21.2730813 C10.9658009,21.0489058 9.53152409,21.2612695 7.30455142,21.9101723 L7.30455142,21.9101723 L14.5673188,18.5409836 L21.7316614,21.6341653 C19.5703052,21.1692672 18.1688367,21.0489058 17.5272557,21.2730813 C16.8856747,21.4972567 15.8990291,21.4972567 14.5673188,21.2730813 Z" id="Combined-Shape" fill="#F6560D"></path>
                        </g>
                        <circle id="Oval-Copy-2" fill="#000000" cx="10.2213115" cy="11.1721311" r="1.66393443"></circle>
                        <circle id="Oval-Copy-4" fill="#000000" cx="18.7786885" cy="11.1721311" r="1.66393443"></circle>
                        <path d="M18.065667,5.23055099 C18.1861599,6.56283962 19.306013,7.6067543 20.6696853,7.6067543 C21.1781592,7.6067543 21.6527343,7.4616159 22.0542422,7.21050733 L22.65684,7.95485759 C22.0895933,8.33550876 21.4070012,8.55757397 20.672543,8.55757397 C18.783499,8.55757397 17.2375652,7.08854452 17.1148239,5.23056788 L17.1148239,5.23056788 Z" id="Combined-Shape" fill="#000000"></path>
                        <path d="M7.60729818,5.23055099 C7.72779114,6.56283962 8.84764416,7.6067543 10.2113165,7.6067543 C10.7197904,7.6067543 11.1943655,7.4616159 11.5958734,7.21050733 L12.1984713,7.95485759 C11.6312245,8.33550876 10.9486324,8.55757397 10.2141742,8.55757397 C8.32513023,8.55757397 6.77919645,7.08854452 6.65645515,5.23056788 L6.65645515,5.23056788 Z" id="Combined-Shape-Copy-2" fill="#000000" transform="translate(9.427463, 6.894062) scale(-1, 1) translate(-9.427463, -6.894062) "></path>
                    </g>
                    <path d="M20.5,17 C21.3284271,17 22,16.404339 22,15.6695539 C22,14.9347688 21.2139252,13 20.385498,13 C19.5570709,13 19,14.9347688 19,15.6695539 C19,16.404339 19.6715729,17 20.5,17 Z" id="Oval" fill="#4A90E2"></path>
                </g>
            </g>
        </g>
    </g>
</svg>