<?xml version="1.0" encoding="UTF-8"?>
<svg width="119px" height="120px" viewBox="0 0 119 120" version="1.1" xmlns="http://www.w3.org/2000/svg" xmlns:xlink="http://www.w3.org/1999/xlink">
    <!-- Generator: Sketch 60 (88103) - https://sketch.com -->
    <title>Group 12</title>
    <desc>Created with Sketch.</desc>
    <g id="Page-1" stroke="none" stroke-width="1" fill="none" fill-rule="evenodd">
        <g id="A4" transform="translate(-324.000000, -416.000000)">
            <g id="Group-12" transform="translate(324.000000, 402.000000)">
                <ellipse id="Oval" fill="#F8E71C" cx="59.5" cy="74" rx="59.5" ry="60"></ellipse>
                <g id="Group-10" transform="translate(26.000000, 48.000000)">
                    <path d="M14.4683416,-8.43769499e-15 C22.1513422,-8.43769499e-15 28.4387052,6.18148437 28.9365721,13.9990822 L0.000111111923,13.9990822 C0.497977994,6.18148437 6.78534101,-8.43769499e-15 14.4683416,-8.43769499e-15 Z" id="Combined-Shape" fill="#000000"></path>
                    <path d="M14.4567202,4 C20.0032743,4 24.5579556,8.39315088 25.0466471,13.9993317 L3.86679339,13.9993317 C4.35548492,8.39315088 8.91016615,4 14.4567202,4 Z" id="Combined-Shape-Copy" fill="#F8E71C"></path>
                </g>
                <g id="Group-10-Copy" transform="translate(66.000000, 48.000000)">
                    <path d="M14.4683416,-8.43769499e-15 C22.1513422,-8.43769499e-15 28.4387052,6.18148437 28.9365721,13.9990822 L0.000111111923,13.9990822 C0.497977994,6.18148437 6.78534101,-8.43769499e-15 14.4683416,-8.43769499e-15 Z" id="Combined-Shape" fill="#000000"></path>
                    <path d="M14.4567202,4 C20.0032743,4 24.5579556,8.39315088 25.0466471,13.9993317 L3.86679339,13.9993317 C4.35548492,8.39315088 8.91016615,4 14.4567202,4 Z" id="Combined-Shape-Copy" fill="#F8E71C"></path>
                </g>
                <path d="M27,83 C35.2083519,86.2677755 41.4657916,86.6083756 45.7723192,84.0218001 C52.2321105,80.1419369 52.542867,72.0129594 55.514289,74.4464096 C57.495237,76.0687098 57.495237,81.9199066 55.514289,92 L27,83 Z" id="Path-4" fill="#FF6F2E"></path>
                <path d="M62,83 C70.533025,86.2677755 76.893513,86.6083756 81.0814639,84.0218001 C87.3633903,80.1419369 87.6655904,72.0129594 90.5551968,74.4464096 C92.4816011,76.0687098 92.4816011,81.9199066 90.5551968,92 L62,83 Z" id="Path-4-Copy" fill="#FF6F2E" transform="translate(77.000000, 83.000000) scale(-1, 1) translate(-77.000000, -83.000000) "></path>
                <path d="M62,77 L62,90.999 L56,90.999 L56,77 L62,77 Z" id="Combined-Shape" stroke="#FF6F2E" fill="#FF6F2E" stroke-linejoin="round"></path>
                <ellipse id="Oval" fill="#FF6F2E" cx="59.5" cy="91" rx="6.5" ry="6"></ellipse>
                <path d="M58,82 C68.2731975,95.7986692 74.6848589,103.209558 77.2349842,104.232668 C79.7851095,105.255777 83.7067814,105.255777 89,104.232668 L89,91.7637067 L58,82 Z" id="Path-5" fill="#F6560D" transform="translate(73.500000, 93.500000) scale(-1, 1) translate(-73.500000, -93.500000) "></path>
                <path d="M28,82 C37.6870341,95.7986692 43.7957377,103.209558 46.3261108,104.232668 C48.856484,105.255777 52.7477804,105.255777 58,104.232668 L58,91.7637067 L28,82 Z" id="Path-5" fill="#F6560D"></path>
            </g>
        </g>
    </g>
</svg>