<?xml version="1.0" encoding="UTF-8"?>
<svg width="119px" height="119px" viewBox="0 0 119 119" version="1.1" xmlns="http://www.w3.org/2000/svg" xmlns:xlink="http://www.w3.org/1999/xlink">
    <!-- Generator: Sketch 60 (88103) - https://sketch.com -->
    <title>Group 13</title>
    <desc>Created with Sketch.</desc>
    <g id="Page-1" stroke="none" stroke-width="1" fill="none" fill-rule="evenodd">
        <g id="A4" transform="translate(-465.000000, -474.000000)">
            <g id="Group-13" transform="translate(465.000000, 474.000000)">
                <g id="Group-8">
                    <g id="Group-6">
                        <circle id="Oval" fill="#F8E71C" cx="59.5" cy="59.5" r="59.5"></circle>
                        <path d="M61.9629705,60.9108421 C64.9380919,58.5372309 65.2492353,66.4663155 71.7170689,70.2507723 C76.028958,72.7737434 81.8481845,78.9483787 89.1747487,88.7746782 L89.1747487,88.7746782 L61.9629705,78.0327869 C61.8279534,77.363477 61.7021272,76.7132817 61.5854921,76.082201 L56.9512489,76.082201 C56.8346138,76.7132817 56.7087877,77.363477 56.5737705,78.0327869 L29.9738489,89.9072586 C36.8925087,79.3259055 42.5077831,72.7737434 46.8196721,70.2507723 C53.2875057,66.4663155 53.5986491,58.5372309 56.5737705,60.9108421 C56.9847217,61.2387072 57.3105263,61.7436516 57.5511844,62.4256752 L60.9855566,62.4256752 C61.2262147,61.7436516 61.5520194,61.2387072 61.9629705,60.9108421 Z" id="Combined-Shape" fill="#FF6F2E"></path>
                        <ellipse id="Oval" fill="#FF6F2E" cx="61.4508197" cy="77.057377" rx="4.87704918" ry="6.82786885"></ellipse>
                        <path d="M59.2518267,87.3791389 C54.0519049,88.2119239 50.1780597,88.1832072 47.630291,87.2929888 C44.9975968,86.3730964 39.1121161,87.2445197 29.9738489,89.9072586 L29.9738489,89.9072586 L59.7762391,76.0819672 L89.1747487,88.7746782 C80.3057353,86.8669929 74.5548814,86.3730964 71.9221872,87.2929888 C69.2894929,88.2128811 65.2408436,88.2128811 59.7762391,87.2929888 Z" id="Combined-Shape" fill="#F6560D"></path>
                    </g>
                    <circle id="Oval-Copy-2" fill="#000000" cx="41.942623" cy="45.8442623" r="6.82786885"></circle>
                    <circle id="Oval-Copy-4" fill="#000000" cx="77.057377" cy="45.8442623" r="6.82786885"></circle>
                    <path d="M70.2295549,21.459727 L74.1312842,21.4605739 C74.6244417,26.9288512 79.2202971,31.2139228 84.8169845,31.2139228 C86.9044706,31.2139228 88.8527223,30.6177899 90.5007862,29.5864775 L92.9742871,32.6402552 C90.6460035,34.2035156 87.8438672,35.1155622 84.828711,35.1155622 C77.0758839,35.1155622 70.7314396,29.0855582 70.2295549,21.459727 L70.2295549,21.459727 Z" id="Combined-Shape" fill="#000000"></path>
                    <path d="M27.3115222,21.459727 L31.2132514,21.4605739 C31.7064089,26.9288512 36.3022643,31.2139228 41.8989517,31.2139228 C43.9864378,31.2139228 45.9346895,30.6177899 47.5827534,29.5864775 L50.0562543,32.6402552 C47.7279707,34.2035156 44.9258344,35.1155622 41.9106782,35.1155622 C34.1578511,35.1155622 27.8134069,29.0855582 27.3115222,21.459727 L27.3115222,21.459727 Z" id="Combined-Shape-Copy-2" fill="#000000" transform="translate(38.683779, 28.287289) scale(-1, 1) translate(-38.683779, -28.287289) "></path>
                </g>
                <path d="M86,69 C89.3137085,69 92,66.3195255 92,63.0129926 C92,59.7064598 88.8557007,51 85.5419922,51 C82.2282837,51 80,59.7064598 80,63.0129926 C80,66.3195255 82.6862915,69 86,69 Z" id="Oval" fill="#4A90E2"></path>
            </g>
        </g>
    </g>
</svg>